<?xml version="1.0" standalone="no"?>
<!DOCTYPE svg PUBLIC "-//W3C//DTD SVG 20010904//EN"
 "http://www.w3.org/TR/2001/REC-SVG-20010904/DTD/svg10.dtd">
<svg version="1.0" xmlns="http://www.w3.org/2000/svg"
 width="1920.000000pt" height="1080.000000pt" viewBox="0 0 1920.000000 1080.000000"
 preserveAspectRatio="xMidYMid meet">

<g transform="translate(0.000000,1080.000000) scale(0.100000,-0.100000)"
fill="#000000" stroke="none">
<path d="M2525 7534 c-656 -88 -1202 -479 -1500 -1074 -147 -294 -216 -564
-231 -903 -20 -455 121 -853 401 -1132 111 -111 208 -179 367 -255 136 -65
244 -100 418 -132 97 -19 151 -22 350 -23 254 0 318 7 515 56 213 53 419 149
578 267 103 77 247 211 247 228 0 8 -97 130 -216 270 l-216 255 -77 -74 c-126
-122 -266 -205 -428 -253 -119 -36 -338 -45 -464 -19 -304 61 -516 265 -601
577 -20 72 -23 106 -23 263 0 187 7 233 52 384 122 412 420 727 788 836 121
36 339 46 466 21 149 -29 317 -129 413 -244 21 -26 40 -46 43 -45 3 0 135 117
293 259 l289 257 -39 46 c-114 136 -309 265 -525 346 -246 92 -610 129 -900
89z"/>
<path d="M6005 7544 c-210 -15 -375 -48 -544 -106 -123 -42 -306 -129 -406
-193 -493 -314 -819 -839 -900 -1449 -24 -177 -17 -506 14 -647 94 -434 327
-746 700 -938 231 -118 431 -169 749 -192 336 -23 686 33 961 155 417 185 731
483 935 886 150 295 219 566 233 910 34 858 -450 1438 -1297 1554 -109 15
-358 26 -445 20z m335 -733 c410 -119 630 -480 580 -951 -45 -426 -237 -771
-537 -967 -100 -66 -161 -94 -278 -129 -84 -26 -103 -28 -280 -28 -152 -1
-203 2 -254 17 -161 44 -266 103 -371 207 -229 227 -298 576 -194 979 112 429
432 777 801 870 117 30 115 30 293 26 133 -2 179 -7 240 -24z"/>
<path d="M8660 7456 c0 -3 -133 -757 -295 -1676 -162 -919 -295 -1673 -295
-1676 0 -2 166 -4 369 -4 l369 0 6 28 c3 15 94 554 202 1197 107 644 199 1174
204 1179 11 11 12 10 80 -364 34 -184 99 -537 145 -785 46 -247 116 -623 155
-835 39 -212 73 -393 76 -402 5 -17 27 -18 283 -18 l277 0 286 528 c157 290
449 829 649 1197 199 369 366 674 370 679 5 5 11 8 13 5 3 -3 -28 -187 -69
-409 -115 -621 -365 -1988 -365 -1995 0 -3 174 -4 387 -3 l387 3 148 840 c81
462 213 1210 293 1661 80 452 145 829 145 838 0 15 -53 16 -585 14 l-586 -3
-385 -740 c-490 -941 -745 -1429 -750 -1434 -2 -2 -7 -2 -10 2 -7 6 -18 67
-243 1332 -78 435 -144 802 -147 818 l-6 27 -554 0 c-305 0 -554 -2 -554 -4z"/>
<path d="M12990 5798 c-161 -915 -295 -1671 -298 -1680 -4 -17 19 -18 386 -18
l390 0 6 28 c9 43 226 1279 226 1286 0 3 283 6 629 6 l630 0 10 53 c18 88 101
570 101 584 0 11 -115 13 -625 13 -512 0 -625 2 -625 13 0 22 121 690 126 699
3 4 304 8 670 8 365 0 664 2 664 5 0 7 109 626 114 648 4 16 -51 17 -1053 17
l-1057 0 -294 -1662z"/>
<path d="M15533 7453 c3 -5 197 -439 431 -967 l426 -958 -120 -687 c-66 -377
-123 -698 -126 -713 l-6 -28 396 0 c218 0 396 3 396 8 0 38 255 1421 265 1432
6 8 370 438 807 956 437 517 798 946 802 952 5 9 -110 12 -471 12 l-478 -1
-480 -634 c-469 -621 -480 -635 -492 -608 -6 16 -114 301 -240 635 l-228 608
-443 0 c-244 0 -441 -3 -439 -7z"/>
</g>
</svg>
